# xmcd CD database file
#
# Track frame offsets:
#	150
#	12505
#	29802
#	41319
#	54654
#	66200
#	79785
#	93810
#	109485
#	119613
#
# Disc length: 1727 seconds
#
# Revision: 0
# Processed by: cddbd v1.5.2PL0 Copyright (c) Steve Scherf et al.
# Submitted via: CDex 1.70beta2
#
DISCID=8706bd0a
DTITLE=Kenny Rogers and The First Edition - Poem For My Little Lady
DYEAR=2006
DGENRE=Country
TTITLE0=Reuben James
TTITLE1=Something's Burning
TTITLE2=Peom For My Little Lady
TTITLE3=It's Gonna Be Better
TTITLE4=Me and Bobby McGee
TTITLE5=I'm Gonna Sing You A Sad Song, Susie
TTITLE6=Molly
TTITLE7=Tulsa Turnaround
TTITLE8=Where Does Rosie Go
TTITLE9=New Design
EXTD=YEAR: 2006
EXTT0=
EXTT1=
EXTT2=
EXTT3=
EXTT4=
EXTT5=
EXTT6=
EXTT7=
EXTT8=
EXTT9=
PLAYORDER=
